# xmcd CD database file
#
# Track frame offsets:
#	150
#	24501
#	47269
#	71204
#	88212
#	115423
#	135966
#	156722
#
# Disc length: 2291 seconds
#
# Revision: 0
# Processed by: cddbd v1.5.2PL0 Copyright (c) Steve Scherf et al.
# Submitted via: CDex 1.51
#
DISCID=6b08f108
DTITLE=Hank Snow - Tales of the Yukon
DYEAR=1968
DGENRE=Country
TTITLE0=The Face On The Barroom Floor
TTITLE1=The Shooting Of Dan McGrew
TTITLE2=The Cremation Of Sam McGee
TTITLE3=The Spell Of The Yukon
TTITLE4=The Ballad Of Blasphemous Bill
TTITLE5=The Ballad Of One-Eyed Mike
TTITLE6=The Ballad Of Hard Luck Henry
TTITLE7=My Friends
EXTD=YEAR: 1968
EXTT0=
EXTT1=
EXTT2=
EXTT3=
EXTT4=
EXTT5=
EXTT6=
EXTT7=
PLAYORDER=
